<svg version="1" xmlns="http://www.w3.org/2000/svg" width="1441.333" height="1441.333" viewBox="0 0 1081.000000 1081.000000"><path d="M770.8 318.5c-.2.2-5.5.5-11.8.9-39.7 1.9-75.9 12.9-117.5 35.4-6.6 3.6-24.4 14.5-47.5 29.2-13.8 8.8-25.9 15.8-34.9 20.3-9.6 4.8-10.9 5.2-17.2 5.1-6 0-8-.6-15.6-4.4-9.8-4.8-24.1-13.3-44.8-26.7-40.8-26.2-67.7-39.6-98-48.7-6.6-2-13.1-3.9-14.5-4.2-9.5-2-22.5-4.3-28-5-8.2-1.1-47.6-1.2-55-.1-14.1 2-21.8 3.4-29.5 5.3-31.3 7.9-58.8 21.1-84 40.2-9.5 7.3-31.5 29.8-39.2 40.2-23.2 31.5-36.2 61.1-42.8 97.5-3 16.1-3.9 41.8-2.1 60 2.6 26.8 11.7 59.2 22.4 79.5 7.8 14.9 8.7 16.5 9.3 17 .3.3 1.2 1.6 1.9 3 4.6 8.7 19.8 27 33.2 40 11.9 11.5 11.1 10.8 21.2 18.4 20.6 15.6 48.8 29.8 69.6 35.1.8.2 4 1.1 7 1.9 5 1.4 16.1 3.8 23.5 5.1 8.2 1.4 19.7 2 36.5 2 15.9 0 33.3-1 35-2 .3-.2 2.5-.6 5-.9 6.6-.9 27.3-6.1 36.5-9.1 31.5-10.6 55.2-22.9 101.5-53 7.4-4.8 14.6-9.5 16-10.3 2.8-1.8 3.2-2.1 14-7.9 14.4-7.8 23.8-8.9 34.5-3.8 9.2 4.4 23 12.5 45 26.5 35.7 22.8 55 33.3 77.5 42.3 10.4 4.2 31.6 11 37.2 12.1 1.3.2 5.8 1.1 10 2 4.2.9 9.4 1.8 11.5 2.2 2.1.3 4.8.7 6.1.9 4.5.7 22.8 1.8 29.7 1.8 6.2-.1 20.2-1.3 34.7-2.9 6.3-.7 24.5-4.7 33.8-7.3 17.2-5 42.3-17.3 58.9-28.9 50.4-35.1 81.8-83.2 92.9-142.2 1.1-5.8 2.3-13.9 2.7-18 .4-4.1.9-8.4 1.2-9.5.6-2.8.5-27.3-.1-31-.2-1.7-.7-5.7-1.1-9-2.8-27.3-11.7-56.7-24.2-80.5-4.8-9-13.6-23.5-15.3-25-.3-.3-2.5-3.2-5-6.5-20.2-27.4-58-56.3-90.5-69.4-4.4-1.8-8.9-3.6-10-4.1-6.8-3-26.9-8.2-38.5-10-4.1-.6-8.6-1.4-10-1.6-1.4-.2-8.1-.7-15-1-6.9-.3-13.3-.7-14.2-.8-.9-.2-1.8-.3-2-.1zm-430 77.8c17.5 3.4 35.5 9.4 53.2 18 12.8 6.2 21.6 11.3 47.5 27.7 46.9 29.7 62.2 37.3 83.5 41.4 7.5 1.5 27.1 1.5 35.5.1 12.4-2.1 33.3-11.3 53.8-23.7 4.8-2.9 9.6-5.8 10.6-6.3 1-.6 3.6-2.2 5.7-3.7 10-6.6 37.3-23.8 38-23.8.3 0 1.8-.8 3.2-1.9 7.1-4.9 32.4-16.8 45-21 6.9-2.4 20.1-5.7 26.2-6.6 2.5-.4 5.4-1 6.5-1.2 5.1-1.3 36.6-1 46 .3 9.5 1.3 22.7 4.4 27 6.3 1.1.5 3.6 1.5 5.5 2.2 6.3 2.2 21 9.9 27.3 14.1 35.2 23.7 58.6 59.5 64.2 98.5.3 2.1.8 4.4 1 5 .4 1.1 1.8 17.2 1.8 19.8-.4 22.6-6.9 49.7-16.5 69-14.8 29.4-42.9 55.6-73.8 68.7-8.8 3.8-24.6 8.4-31.5 9.3-2.2.2-5.8.7-8 1-27.9 3.5-49.7 1-78.5-9-14.1-5-24.1-9.6-39-18-13-7.4-14.4-8.3-41.7-25.6-48.5-30.7-65.5-37.3-94.3-36.4-28.9.9-43 7.2-102.5 45.6-9.3 6-18.1 11.6-19.5 12.3-1.4.7-6.6 3.5-11.5 6.2-17.3 9.5-44.4 20.3-55.4 22-2 .3-3.9.8-4.2.9-.3.2-2.8.7-5.5 1.1-2.7.3-7.1 1-9.9 1.5-2.7.4-12.4.7-21.5.5-18.1-.4-30.3-2.4-46.4-7.7-34.8-11.5-64.6-36.7-82.8-69.9-6.3-11.5-13.7-33.8-15.2-46-.4-2.5-.9-5.9-1.2-7.5-.8-3.7-.8-31.6-.1-36.5.3-1.9 1.4-7.8 2.5-13 9-42.5 40.1-82.4 78.4-100.5 14.3-6.7 33.5-12.5 46.8-14.1 3-.3 5.7-.8 5.9-1 1.1-1 36.6.6 43.9 1.9z"/></svg>